<svg width="152" height="112" viewBox="0 0 152 112" fill="none" xmlns="http://www.w3.org/2000/svg">
<path d="M41.8713 33.3211C49.2413 44.3211 54.0813 55.3212 52.9513 68.0012C52.7813 69.8212 54.7713 70.8811 56.2913 72.0811C64.4613 78.5611 72.3913 85.2411 76.8613 94.6011C79.0313 99.1611 79.5313 103.721 77.6713 108.391C76.3913 111.611 74.0013 112.671 70.8613 110.321C53.3013 97.2211 33.5013 86.9011 16.0013 73.8111C-1.85873 60.4611 -5.07872 35.1411 7.91127 18.8111C21.3613 1.8911 47.1413 -2.93889 67.3813 7.45111C72.4313 10.0411 73.2913 11.9111 67.9313 15.1011C60.8482 19.4129 54.5876 24.949 49.4413 31.4511C47.4513 33.8811 45.7213 35.4811 41.8713 33.3211Z" fill="#5F8B80"/>
<path d="M89.9213 48.031C83.1113 55.191 83.6813 61.881 91.5613 70.031C86.0913 72.651 80.3713 72.841 75.7213 69.901C65.3813 63.361 71.6413 54.1611 72.7213 44.8111C67.3713 49.6511 66.3213 54.601 66.3613 60.031C66.3613 61.591 67.8513 64.0311 65.0713 64.6111C63.8805 64.8394 62.6478 64.6693 61.5633 64.1271C60.4789 63.5849 59.6031 62.7007 59.0713 61.6111C56.0713 56.0511 56.8513 50.2111 58.0713 44.4311C58.4313 42.7211 59.6013 41.161 58.6713 38.521C56.1613 42.671 53.5913 47.1111 49.5413 40.4511C48.7813 39.1911 48.1813 37.9711 49.5413 36.2511C63.0513 18.9411 80.4013 6.53102 103.541 2.52102C122.681 -0.808982 144.111 12.3711 149.211 29.4511C149.691 31.0711 150.941 33.1211 147.401 33.1811C139.191 33.3211 134.111 38.5511 128.881 43.1811C122.761 48.5811 117.161 54.4811 111.251 60.0811C109.381 61.8611 107.511 64.0811 105.151 64.8811C101.641 66.1411 98.4413 69.8811 93.8913 66.8811C89.6413 64.0511 88.3613 60.1311 88.7113 55.6311C88.8513 53.2511 89.4213 50.941 89.9213 48.031Z" fill="#F3AE5F" stroke="black" stroke-width="2.83" stroke-miterlimit="10"/>
<path d="M126.851 80.1211C125.031 81.3911 122.751 83.1211 120.351 84.6111C109.605 91.4711 98.8313 98.3078 88.0313 105.121C85.1213 106.971 82.5014 107.961 82.5014 103.121C82.5014 92.1211 75.9213 84.361 67.4013 77.561C65.8482 76.4973 64.4164 75.2667 63.1314 73.8911C61.7914 72.2011 57.4813 71.2611 60.2913 68.2411C63.1013 65.2211 66.6814 66.871 68.6314 69.031C72.8814 73.741 78.4013 75.161 84.4613 76.681C88.0413 77.581 90.4613 76.921 93.3413 75.771C100.081 73.111 106.801 70.0611 114.461 70.9611C119.781 71.5811 124.331 73.4611 126.851 80.1211Z" fill="#5F8B80"/>
<path d="M112.681 65.9811C121.331 59.9811 129.331 57.9311 138.371 61.2211C142.371 62.6911 144.041 64.8612 139.871 68.0012C138.539 68.9716 137.257 70.0096 136.031 71.1111C132.311 74.5611 128.921 77.1712 124.751 71.2612C122.451 67.9912 117.601 67.9311 112.681 65.9811Z" fill="#5F8B80"/>
<path d="M119.941 57.3811C126.811 52.5611 133.011 48.811 140.681 47.941C143.501 47.621 146.811 46.801 148.451 49.941C150.091 53.081 146.651 54.671 145.341 56.941C143.881 59.411 141.981 60.491 138.871 58.831C133.191 55.761 126.921 58.0711 119.941 57.3811Z" fill="#5F8B80"/>
<path d="M131.371 46.1311C135.123 42.5915 139.543 39.8345 144.371 38.021C146.241 37.371 148.131 36.701 149.871 38.161C151.201 39.271 150.641 40.551 150.021 41.831C149.101 43.701 148.371 45.831 145.451 45.291C140.721 44.481 136.281 46.0911 131.371 46.1311Z" fill="#5F8B80"/>
</svg>
