<svg width="160" height="153" viewBox="0 0 160 153" fill="none" xmlns="http://www.w3.org/2000/svg">
<g filter="url(#filter0_d_402_578)">
<path d="M13.0905 144.031V119.346H21.4312C23.3677 119.346 24.9507 119.696 26.1801 120.395C27.4176 121.086 28.3336 122.022 28.9282 123.203C29.5228 124.385 29.8201 125.702 29.8201 127.157C29.8201 128.611 29.5228 129.933 28.9282 131.122C28.3416 132.311 27.4336 133.26 26.2042 133.967C24.9748 134.666 23.3999 135.015 21.4794 135.015H15.5011V132.364H21.383C22.7088 132.364 23.7735 132.135 24.5771 131.677C25.3806 131.219 25.9632 130.6 26.3247 129.82C26.6944 129.033 26.8792 128.145 26.8792 127.157C26.8792 126.168 26.6944 125.284 26.3247 124.505C25.9632 123.726 25.3766 123.115 24.565 122.673C23.7534 122.223 22.6767 121.998 21.3348 121.998H16.0796V144.031H13.0905ZM34.5093 144.031V120.387H48.7786V122.927H37.3724V130.916H48.0397V133.456H37.3724V141.491H48.9633V144.031H34.5093ZM52.6461 122.927V120.387H70.3788V122.927H62.944V144.031H60.0809V122.927H52.6461ZM87.7277 126.298C87.5891 125.128 87.0273 124.22 86.0421 123.574C85.057 122.927 83.8486 122.604 82.4171 122.604C81.3703 122.604 80.4545 122.773 79.6694 123.112C78.8921 123.451 78.2841 123.916 77.8454 124.509C77.4143 125.102 77.1988 125.775 77.1988 126.529C77.1988 127.16 77.3489 127.703 77.6491 128.157C77.957 128.603 78.3495 128.977 78.8267 129.277C79.3038 129.569 79.8041 129.812 80.3275 130.004C80.8508 130.189 81.3319 130.339 81.7706 130.454L84.1719 131.101C84.7876 131.263 85.4726 131.486 86.2268 131.771C86.9888 132.055 87.7161 132.444 88.4088 132.937C89.1092 133.421 89.6864 134.045 90.1405 134.807C90.5946 135.569 90.8216 136.504 90.8216 137.612C90.8216 138.89 90.4868 140.044 89.8173 141.076C89.1554 142.107 88.1856 142.927 86.908 143.535C85.6381 144.143 84.0949 144.447 82.2785 144.447C80.5853 144.447 79.1191 144.173 77.88 143.627C76.6485 143.081 75.6788 142.319 74.9707 141.341C74.2703 140.364 73.874 139.228 73.7816 137.935H76.7371C76.814 138.828 77.1142 139.567 77.6375 140.152C78.1686 140.729 78.8382 141.16 79.6463 141.445C80.4622 141.722 81.3396 141.861 82.2785 141.861C83.3714 141.861 84.3527 141.684 85.2224 141.33C86.0921 140.968 86.781 140.468 87.289 139.829C87.7969 139.182 88.0509 138.428 88.0509 137.566C88.0509 136.781 87.8316 136.142 87.3929 135.65C86.9542 135.157 86.3769 134.757 85.6611 134.449C84.9454 134.141 84.1719 133.872 83.3407 133.641L80.4314 132.81C78.5842 132.278 77.1219 131.52 76.0444 130.535C74.9669 129.55 74.4281 128.261 74.4281 126.668C74.4281 125.344 74.786 124.189 75.5018 123.204C76.2252 122.211 77.195 121.442 78.411 120.895C79.6348 120.341 81.0009 120.064 82.5094 120.064C84.0333 120.064 85.3879 120.337 86.5732 120.884C87.7584 121.423 88.6974 122.161 89.3901 123.1C90.0905 124.039 90.4599 125.105 90.4984 126.298H87.7277ZM96.4988 144.031H93.4971L102.179 120.387H105.134L113.816 144.031H110.814L103.749 124.128H103.564L96.4988 144.031ZM97.6071 134.795H109.706V137.335H97.6071V134.795ZM117.499 144.031V120.387H131.676V122.927H120.362V130.916H130.613V133.456H120.362V144.031H117.499ZM136.579 144.031V120.387H150.849V122.927H139.442V130.916H150.11V133.456H139.442V141.491H151.033V144.031H136.579Z" fill="#F3AE5F"/>
<path d="M13.0905 144.031H11.6132V145.508H13.0905V144.031ZM13.0905 119.346V117.869H11.6132V119.346H13.0905ZM26.1801 120.395L25.4499 121.679L25.4598 121.685L26.1801 120.395ZM28.9282 123.203L27.6087 123.868V123.868L28.9282 123.203ZM28.9282 131.122L27.6068 130.462L27.6033 130.469L28.9282 131.122ZM26.2042 133.967L26.9345 135.251L26.9408 135.247L26.2042 133.967ZM15.5011 135.015H14.0238V136.493H15.5011V135.015ZM15.5011 132.364V130.886H14.0238V132.364H15.5011ZM24.5771 131.677L23.8455 130.393H23.8455L24.5771 131.677ZM26.3247 129.82L24.9874 129.193L24.9846 129.199L26.3247 129.82ZM26.3247 124.505L24.9846 125.127L24.9899 125.138L26.3247 124.505ZM24.565 122.673L23.8486 123.965L23.8585 123.97L24.565 122.673ZM16.0796 121.998V120.521H14.6023V121.998H16.0796ZM16.0796 144.031V145.508H17.5569V144.031H16.0796ZM14.5678 144.031V119.346H11.6132V144.031H14.5678ZM13.0905 120.824H21.4312V117.869H13.0905V120.824ZM21.4312 120.824C23.2021 120.824 24.5103 121.145 25.4499 121.679L26.9103 119.111C25.3911 118.247 23.5333 117.869 21.4312 117.869V120.824ZM25.4598 121.685C26.4589 122.243 27.1565 122.969 27.6087 123.868L30.2477 122.539C29.5107 121.075 28.3762 119.929 26.9004 119.105L25.4598 121.685ZM27.6087 123.868C28.0895 124.823 28.3428 125.91 28.3428 127.157H31.2974C31.2974 125.495 30.9561 123.946 30.2477 122.539L27.6087 123.868ZM28.3428 127.157C28.3428 128.404 28.0896 129.496 27.6069 130.462L30.2495 131.783C30.9561 130.37 31.2974 128.819 31.2974 127.157H28.3428ZM27.6033 130.469C27.1555 131.377 26.4617 132.114 25.4677 132.686L26.9408 135.247C28.4056 134.405 29.5278 133.246 30.2531 131.776L27.6033 130.469ZM25.474 132.683C24.5328 133.218 23.2318 133.538 21.4794 133.538V136.493C23.568 136.493 25.4168 136.114 26.9345 135.251L25.474 132.683ZM21.4794 133.538H15.5011V136.493H21.4794V133.538ZM16.9784 135.015V132.364H14.0238V135.015H16.9784ZM15.5011 133.841H21.383V130.886H15.5011V133.841ZM21.383 133.841C22.8607 133.841 24.2062 133.588 25.3086 132.96L23.8455 130.393C23.3409 130.681 22.5569 130.886 21.383 130.886V133.841ZM25.3086 132.96C26.3573 132.362 27.164 131.522 27.6649 130.442L24.9846 129.199C24.7623 129.678 24.4039 130.075 23.8455 130.393L25.3086 132.96ZM27.6621 130.448C28.1357 129.439 28.3565 128.332 28.3565 127.157H25.4019C25.4019 127.958 25.2531 128.627 24.9874 129.193L27.6621 130.448ZM28.3565 127.157C28.3565 125.981 28.1358 124.876 27.6596 123.872L24.9899 125.138C25.253 125.693 25.4019 126.355 25.4019 127.157H28.3565ZM27.6649 123.883C27.1597 122.794 26.339 121.957 25.2715 121.376L23.8585 123.97C24.4142 124.273 24.7666 124.657 24.9846 125.127L27.6649 123.883ZM25.2814 121.381C24.1744 120.767 22.8227 120.521 21.3348 120.521V123.475C22.5307 123.475 23.3325 123.679 23.8486 123.965L25.2814 121.381ZM21.3348 120.521H16.0796V123.475H21.3348V120.521ZM14.6023 121.998V144.031H17.5569V121.998H14.6023ZM16.0796 142.554H13.0905V145.508H16.0796V142.554ZM34.5093 144.031H33.032V145.508H34.5093V144.031ZM34.5093 120.387V118.91H33.032V120.387H34.5093ZM48.7786 120.387H50.2559V118.91H48.7786V120.387ZM48.7786 122.927V124.405H50.2559V122.927H48.7786ZM37.3724 122.927V121.45H35.8951V122.927H37.3724ZM37.3724 130.916H35.8951V132.394H37.3724V130.916ZM48.0397 130.916H49.517V129.439H48.0397V130.916ZM48.0397 133.456V134.933H49.517V133.456H48.0397ZM37.3724 133.456V131.979H35.8951V133.456H37.3724ZM37.3724 141.491H35.8951V142.968H37.3724V141.491ZM48.9633 141.491H50.4406V140.014H48.9633V141.491ZM48.9633 144.031V145.508H50.4406V144.031H48.9633ZM35.9866 144.031V120.387H33.032V144.031H35.9866ZM34.5093 121.865H48.7786V118.91H34.5093V121.865ZM47.3013 120.387V122.927H50.2559V120.387H47.3013ZM48.7786 121.45H37.3724V124.405H48.7786V121.45ZM35.8951 122.927V130.916H38.8497V122.927H35.8951ZM37.3724 132.394H48.0397V129.439H37.3724V132.394ZM46.5624 130.916V133.456H49.517V130.916H46.5624ZM48.0397 131.979H37.3724V134.933H48.0397V131.979ZM35.8951 133.456V141.491H38.8497V133.456H35.8951ZM37.3724 142.968H48.9633V140.014H37.3724V142.968ZM47.486 141.491V144.031H50.4406V141.491H47.486ZM48.9633 142.554H34.5093V145.508H48.9633V142.554ZM52.6461 122.927H51.1688V124.405H52.6461V122.927ZM52.6461 120.387V118.91H51.1688V120.387H52.6461ZM70.3788 120.387H71.8561V118.91H70.3788V120.387ZM70.3788 122.927V124.405H71.8561V122.927H70.3788ZM62.944 122.927V121.45H61.4667V122.927H62.944ZM62.944 144.031V145.508H64.4213V144.031H62.944ZM60.0809 144.031H58.6036V145.508H60.0809V144.031ZM60.0809 122.927H61.5582V121.45H60.0809V122.927ZM54.1234 122.927V120.387H51.1688V122.927H54.1234ZM52.6461 121.865H70.3788V118.91H52.6461V121.865ZM68.9015 120.387V122.927H71.8561V120.387H68.9015ZM70.3788 121.45H62.944V124.405H70.3788V121.45ZM61.4667 122.927V144.031H64.4213V122.927H61.4667ZM62.944 142.554H60.0809V145.508H62.944V142.554ZM61.5582 144.031V122.927H58.6036V144.031H61.5582ZM60.0809 121.45H52.6461V124.405H60.0809V121.45ZM87.7277 126.298L86.2606 126.472L86.415 127.776H87.7277V126.298ZM86.0421 123.574L85.2316 124.809L86.0421 123.574ZM79.6694 123.112L79.0843 121.755L79.0794 121.758L79.6694 123.112ZM77.8454 124.509L76.6579 123.63L76.6506 123.64L77.8454 124.509ZM77.6491 128.157L76.4167 128.972L76.4247 128.984L76.433 128.996L77.6491 128.157ZM78.8267 129.277L78.0401 130.527L78.0473 130.532L78.0547 130.536L78.8267 129.277ZM80.3275 130.004L79.8177 131.391L79.8267 131.394L79.8358 131.397L80.3275 130.004ZM81.7706 130.454L82.1546 129.028L82.1465 129.026L81.7706 130.454ZM84.1719 131.101L83.7878 132.527L83.7968 132.53L84.1719 131.101ZM86.2268 131.771L85.705 133.153L85.7097 133.154L86.2268 131.771ZM88.4088 132.937L87.5527 134.14L87.5602 134.146L87.5679 134.151L88.4088 132.937ZM90.1405 134.807L91.4095 134.05V134.05L90.1405 134.807ZM89.8173 141.076L88.5782 140.271L88.574 140.278L89.8173 141.076ZM86.908 143.535L86.2731 142.201L86.27 142.202L86.908 143.535ZM77.88 143.627L77.2808 144.977L77.2839 144.979L77.88 143.627ZM74.9707 141.341L73.7698 142.202L73.7743 142.208L74.9707 141.341ZM73.7816 137.935V136.458H72.195L72.3081 138.041L73.7816 137.935ZM76.7371 137.935L78.2089 137.809L78.0925 136.458H76.7371V137.935ZM77.6376 140.152L76.5366 141.137L76.5434 141.145L76.5504 141.152L77.6376 140.152ZM79.6463 141.445L79.1553 142.838L79.1633 142.841L79.1713 142.844L79.6463 141.445ZM85.2224 141.33L85.7795 142.698L85.7898 142.694L85.2224 141.33ZM87.289 139.829L88.4453 140.748L88.4506 140.741L87.289 139.829ZM87.3929 135.65L88.4961 134.667V134.667L87.3929 135.65ZM85.6611 134.449L85.0774 135.806L85.6611 134.449ZM83.3407 133.641L82.9348 135.061L82.9453 135.064L83.3407 133.641ZM80.4314 132.81L80.0232 134.229L80.0255 134.23L80.4314 132.81ZM76.0444 130.535L75.0475 131.626V131.626L76.0444 130.535ZM75.5018 123.204L74.3078 122.334L74.3066 122.336L75.5018 123.204ZM78.411 120.895L79.0166 122.243L79.0204 122.241L78.411 120.895ZM86.5732 120.884L85.9547 122.225L85.9619 122.229L86.5732 120.884ZM89.3901 123.1L88.2013 123.977L88.2059 123.984L89.3901 123.1ZM90.4984 126.298V127.776H92.0241L91.9749 126.251L90.4984 126.298ZM89.1947 126.125C89.0048 124.521 88.2026 123.225 86.8527 122.339L85.2316 124.809C85.852 125.216 86.1734 125.736 86.2606 126.472L89.1947 126.125ZM86.8527 122.339C85.5793 121.503 84.0742 121.127 82.4171 121.127V124.081C83.6231 124.081 84.5346 124.351 85.2316 124.809L86.8527 122.339ZM82.4171 121.127C81.2131 121.127 80.0906 121.321 79.0843 121.755L80.2546 124.468C80.8183 124.225 81.5276 124.081 82.4171 124.081V121.127ZM79.0794 121.758C78.1008 122.184 77.2725 122.8 76.658 123.63L79.0327 125.388C79.2956 125.033 79.6833 124.717 80.2594 124.466L79.0794 121.758ZM76.6506 123.64C76.0303 124.493 75.7215 125.473 75.7215 126.529H78.6761C78.6761 126.077 78.7984 125.71 79.0401 125.378L76.6506 123.64ZM75.7215 126.529C75.7215 127.403 75.9326 128.239 76.4167 128.972L78.8815 127.342C78.7653 127.167 78.6761 126.918 78.6761 126.529H75.7215ZM76.433 128.996C76.8591 129.614 77.4001 130.125 78.0401 130.527L79.6133 128.026C79.2988 127.829 79.0548 127.593 78.8652 127.318L76.433 128.996ZM78.0547 130.536C78.6146 130.88 79.2026 131.165 79.8177 131.391L80.8372 128.618C80.4056 128.459 79.9931 128.259 79.5986 128.017L78.0547 130.536ZM79.8358 131.397C80.3892 131.593 80.9094 131.755 81.3946 131.883L82.1465 129.026C81.7543 128.923 81.3125 128.785 80.8192 128.611L79.8358 131.397ZM81.3865 131.881L83.7878 132.527L84.5559 129.674L82.1546 129.028L81.3865 131.881ZM83.7968 132.53C84.3518 132.676 84.9868 132.881 85.705 133.153L86.7486 130.388C85.9583 130.09 85.2234 129.85 84.547 129.672L83.7968 132.53ZM85.7097 133.154C86.346 133.392 86.96 133.719 87.5527 134.14L89.2649 131.733C88.4723 131.169 87.6316 130.718 86.744 130.387L85.7097 133.154ZM87.5679 134.151C88.0872 134.511 88.5211 134.975 88.8715 135.563L91.4095 134.05C90.8518 133.115 90.1311 132.332 89.2497 131.722L87.5679 134.151ZM88.8715 135.563C89.1591 136.046 89.3443 136.704 89.3443 137.612H92.299C92.299 136.303 92.0301 135.092 91.4095 134.05L88.8715 135.563ZM89.3443 137.612C89.3443 138.616 89.086 139.489 88.5782 140.271L91.0563 141.88C91.8877 140.6 92.299 139.164 92.299 137.612H89.3443ZM88.574 140.278C88.0828 141.043 87.3412 141.692 86.2731 142.201L87.5428 144.869C89.03 144.161 90.2279 143.171 91.0605 141.874L88.574 140.278ZM86.27 142.202C85.2483 142.691 83.9358 142.969 82.2785 142.969V145.924C84.254 145.924 86.0278 145.594 87.5459 144.867L86.27 142.202ZM82.2785 142.969C80.7408 142.969 79.4866 142.721 78.4761 142.275L77.2839 144.979C78.7516 145.626 80.4298 145.924 82.2785 145.924V142.969ZM78.4792 142.277C77.4577 141.823 76.705 141.217 76.1671 140.474L73.7743 142.208C74.6525 143.42 75.8394 144.338 77.2808 144.977L78.4792 142.277ZM76.1716 140.481C75.6425 139.742 75.3297 138.873 75.2551 137.83L72.3081 138.041C72.4183 139.584 72.8982 140.985 73.7699 142.202L76.1716 140.481ZM73.7816 139.413H76.7371V136.458H73.7816V139.413ZM75.2652 138.062C75.3656 139.227 75.7704 140.281 76.5366 141.137L78.7385 139.167C78.4579 138.853 78.2625 138.43 78.2089 137.809L75.2652 138.062ZM76.5504 141.152C77.2598 141.923 78.1408 142.481 79.1553 142.838L80.1373 140.052C79.5356 139.84 79.0774 139.535 78.7247 139.152L76.5504 141.152ZM79.1713 142.844C80.1532 143.177 81.1925 143.338 82.2785 143.338V140.383C81.4867 140.383 80.7711 140.267 80.1214 140.046L79.1713 142.844ZM82.2785 143.338C83.5315 143.338 84.7064 143.135 85.7794 142.698L84.6655 139.961C83.9991 140.233 83.2113 140.383 82.2785 140.383V143.338ZM85.7898 142.694C86.8544 142.251 87.7592 141.611 88.4453 140.748L86.1327 138.909C85.8028 139.324 85.3299 139.685 84.6551 139.966L85.7898 142.694ZM88.4506 140.741C89.1735 139.821 89.5282 138.742 89.5282 137.566H86.5736C86.5736 138.114 86.4204 138.543 86.1273 138.916L88.4506 140.741ZM89.5282 137.566C89.5282 136.491 89.22 135.48 88.4961 134.667L86.2897 136.632C86.4431 136.804 86.5736 137.071 86.5736 137.566H89.5282ZM88.4961 134.667C87.8899 133.986 87.1235 133.47 86.2448 133.092L85.0774 135.806C85.6304 136.044 86.0184 136.327 86.2897 136.632L88.4961 134.667ZM86.2448 133.092C85.4618 132.755 84.6247 132.464 83.736 132.217L82.9453 135.064C83.719 135.279 84.429 135.527 85.0774 135.806L86.2448 133.092ZM83.7465 132.22L80.8372 131.389L80.0255 134.23L82.9348 135.061L83.7465 132.22ZM80.8396 131.39C79.1449 130.903 77.906 130.236 77.0412 129.445L75.0475 131.626C76.3378 132.805 78.0235 133.654 80.0232 134.229L80.8396 131.39ZM77.0412 129.445C76.2997 128.767 75.9054 127.888 75.9054 126.668H72.9508C72.9508 128.633 73.634 130.333 75.0475 131.626L77.0412 129.445ZM75.9054 126.668C75.9054 125.627 76.1807 124.783 76.6969 124.073L74.3066 122.336C73.3913 123.596 72.9508 125.061 72.9508 126.668H75.9054ZM76.6957 124.074C77.2551 123.307 78.0143 122.693 79.0166 122.243L77.8055 119.548C76.3757 120.19 75.1953 121.116 74.3078 122.334L76.6957 124.074ZM79.0204 122.241C80.0304 121.784 81.1852 121.541 82.5094 121.541V118.587C80.8167 118.587 79.2391 118.899 77.8016 119.55L79.0204 122.241ZM82.5094 121.541C83.8553 121.541 84.9932 121.782 85.9547 122.225L87.1917 119.542C85.7826 118.893 84.2114 118.587 82.5094 118.587V121.541ZM85.9619 122.229C86.945 122.676 87.6748 123.264 88.2013 123.977L90.5789 122.223C89.72 121.059 88.5719 120.17 87.1845 119.539L85.9619 122.229ZM88.2059 123.984C88.7221 124.676 88.9929 125.449 89.0219 126.346L91.9749 126.251C91.9269 124.762 91.4589 123.403 90.5743 122.217L88.2059 123.984ZM90.4984 124.821H87.7277V127.776H90.4984V124.821ZM96.4988 144.031V145.508H97.542L97.891 144.525L96.4988 144.031ZM93.4971 144.031L92.1104 143.522L91.3809 145.508H93.4971V144.031ZM102.179 120.387V118.91H101.147L100.792 119.878L102.179 120.387ZM105.134 120.387L106.521 119.878L106.166 118.91H105.134V120.387ZM113.816 144.031V145.508H115.932L115.203 143.522L113.816 144.031ZM110.814 144.031L109.422 144.525L109.771 145.508H110.814V144.031ZM103.749 124.128L105.141 123.634L104.792 122.651H103.749V124.128ZM103.564 124.128V122.651H102.521L102.172 123.634L103.564 124.128ZM97.6071 134.795V133.318H96.1298V134.795H97.6071ZM109.706 134.795H111.183V133.318H109.706V134.795ZM109.706 137.335V138.812H111.183V137.335H109.706ZM97.6071 137.335H96.1298V138.812H97.6071V137.335ZM96.4988 142.554H93.4971V145.508H96.4988V142.554ZM94.8839 144.54L103.566 120.897L100.792 119.878L92.1104 143.522L94.8839 144.54ZM102.179 121.865H105.134V118.91H102.179V121.865ZM103.747 120.897L112.429 144.54L115.203 143.522L106.521 119.878L103.747 120.897ZM113.816 142.554H110.814V145.508H113.816V142.554ZM112.206 143.537L105.141 123.634L102.357 124.622L109.422 144.525L112.206 143.537ZM103.749 122.651H103.564V125.605H103.749V122.651ZM102.172 123.634L95.1066 143.537L97.891 144.525L104.956 124.622L102.172 123.634ZM97.6071 136.273H109.706V133.318H97.6071V136.273ZM108.229 134.795V137.335H111.183V134.795H108.229ZM109.706 135.858H97.6071V138.812H109.706V135.858ZM99.0844 137.335V134.795H96.1298V137.335H99.0844ZM117.499 144.031H116.021V145.508H117.499V144.031ZM117.499 120.387V118.91H116.021V120.387H117.499ZM131.676 120.387H133.153V118.91H131.676V120.387ZM131.676 122.927V124.405H133.153V122.927H131.676ZM120.362 122.927V121.45H118.884V122.927H120.362ZM120.362 130.916H118.884V132.394H120.362V130.916ZM130.613 130.916H132.091V129.439H130.613V130.916ZM130.613 133.456V134.933H132.091V133.456H130.613ZM120.362 133.456V131.979H118.884V133.456H120.362ZM120.362 144.031V145.508H121.839V144.031H120.362ZM118.976 144.031V120.387H116.021V144.031H118.976ZM117.499 121.865H131.676V118.91H117.499V121.865ZM130.198 120.387V122.927H133.153V120.387H130.198ZM131.676 121.45H120.362V124.405H131.676V121.45ZM118.884 122.927V130.916H121.839V122.927H118.884ZM120.362 132.394H130.613V129.439H120.362V132.394ZM129.136 130.916V133.456H132.091V130.916H129.136ZM130.613 131.979H120.362V134.933H130.613V131.979ZM118.884 133.456V144.031H121.839V133.456H118.884ZM120.362 142.554H117.499V145.508H120.362V142.554ZM136.579 144.031H135.102V145.508H136.579V144.031ZM136.579 120.387V118.91H135.102V120.387H136.579ZM150.849 120.387H152.326V118.91H150.849V120.387ZM150.849 122.927V124.405H152.326V122.927H150.849ZM139.442 122.927V121.45H137.965V122.927H139.442ZM139.442 130.916H137.965V132.394H139.442V130.916ZM150.11 130.916H151.587V129.439H150.11V130.916ZM150.11 133.456V134.933H151.587V133.456H150.11ZM139.442 133.456V131.979H137.965V133.456H139.442ZM139.442 141.491H137.965V142.968H139.442V141.491ZM151.033 141.491H152.511V140.014H151.033V141.491ZM151.033 144.031V145.508H152.511V144.031H151.033ZM138.057 144.031V120.387H135.102V144.031H138.057ZM136.579 121.865H150.849V118.91H136.579V121.865ZM149.371 120.387V122.927H152.326V120.387H149.371ZM150.849 121.45H139.442V124.405H150.849V121.45ZM137.965 122.927V130.916H140.92V122.927H137.965ZM139.442 132.394H150.11V129.439H139.442V132.394ZM148.632 130.916V133.456H151.587V130.916H148.632ZM150.11 131.979H139.442V134.933H150.11V131.979ZM137.965 133.456V141.491H140.92V133.456H137.965ZM139.442 142.968H151.033V140.014H139.442V142.968ZM149.556 141.491V144.031H152.511V141.491H149.556ZM151.033 142.554H136.579V145.508H151.033V142.554Z" fill="black"/>
<path d="M45.8713 33.3211C53.2413 44.3211 58.0813 55.3212 56.9513 68.0012C56.7813 69.8212 58.7713 70.8811 60.2913 72.0811C68.4613 78.5611 76.3913 85.2411 80.8613 94.6011C83.0313 99.1611 83.5313 103.721 81.6713 108.391C80.3913 111.611 78.0013 112.671 74.8613 110.321C57.3013 97.2211 37.5013 86.9011 20.0013 73.8111C2.14127 60.4611 -1.07872 35.1411 11.9113 18.8111C25.3613 1.8911 51.1413 -2.93889 71.3813 7.45111C76.4313 10.0411 77.2913 11.9111 71.9313 15.1011C64.8482 19.4129 58.5876 24.949 53.4413 31.4511C51.4513 33.8811 49.7213 35.4811 45.8713 33.3211Z" fill="#5F8B80"/>
<path d="M93.9213 48.031C87.1113 55.191 87.6813 61.881 95.5613 70.031C90.0913 72.651 84.3713 72.841 79.7213 69.901C69.3813 63.361 75.6413 54.1611 76.7213 44.8111C71.3713 49.6511 70.3213 54.601 70.3613 60.031C70.3613 61.591 71.8513 64.0311 69.0713 64.6111C67.8805 64.8394 66.6478 64.6693 65.5633 64.1271C64.4789 63.5849 63.6031 62.7007 63.0713 61.6111C60.0713 56.0511 60.8513 50.2111 62.0713 44.4311C62.4313 42.7211 63.6013 41.161 62.6713 38.521C60.1613 42.671 57.5913 47.1111 53.5413 40.4511C52.7813 39.1911 52.1813 37.9711 53.5413 36.2511C67.0513 18.9411 84.4013 6.53102 107.541 2.52102C126.681 -0.808982 148.111 12.3711 153.211 29.4511C153.691 31.0711 154.941 33.1211 151.401 33.1811C143.191 33.3211 138.111 38.5511 132.881 43.1811C126.761 48.5811 121.161 54.4811 115.251 60.0811C113.381 61.8611 111.511 64.0811 109.151 64.8811C105.641 66.1411 102.441 69.8811 97.8913 66.8811C93.6413 64.0511 92.3613 60.1311 92.7113 55.6311C92.8513 53.2511 93.4213 50.941 93.9213 48.031Z" fill="#F3AE5F" stroke="black" stroke-width="2.83" stroke-miterlimit="10"/>
<path d="M130.851 80.1211C129.031 81.3911 126.751 83.1211 124.351 84.6111C113.605 91.4711 102.831 98.3078 92.0313 105.121C89.1213 106.971 86.5014 107.961 86.5014 103.121C86.5014 92.1211 79.9213 84.361 71.4013 77.561C69.8482 76.4973 68.4164 75.2667 67.1314 73.8911C65.7914 72.2011 61.4813 71.2611 64.2913 68.2411C67.1013 65.2211 70.6814 66.871 72.6314 69.031C76.8814 73.741 82.4013 75.161 88.4613 76.681C92.0413 77.581 94.4613 76.921 97.3413 75.771C104.081 73.111 110.801 70.0611 118.461 70.9611C123.781 71.5811 128.331 73.4611 130.851 80.1211Z" fill="#5F8B80"/>
<path d="M116.681 65.9811C125.331 59.9811 133.331 57.9311 142.371 61.2211C146.371 62.6911 148.041 64.8612 143.871 68.0012C142.539 68.9716 141.257 70.0096 140.031 71.1111C136.311 74.5611 132.921 77.1712 128.751 71.2612C126.451 67.9912 121.601 67.9311 116.681 65.9811Z" fill="#5F8B80"/>
<path d="M123.941 57.3811C130.811 52.5611 137.011 48.811 144.681 47.941C147.501 47.621 150.811 46.801 152.451 49.941C154.091 53.081 150.651 54.671 149.341 56.941C147.881 59.411 145.981 60.491 142.871 58.831C137.191 55.761 130.921 58.0711 123.941 57.3811Z" fill="#5F8B80"/>
<path d="M135.371 46.1311C139.123 42.5915 143.543 39.8345 148.371 38.021C150.241 37.371 152.131 36.701 153.871 38.161C155.201 39.271 154.641 40.551 154.021 41.831C153.101 43.701 152.371 45.831 149.451 45.291C144.721 44.481 140.281 46.0911 135.371 46.1311Z" fill="#5F8B80"/>
</g>
<defs>
<filter id="filter0_d_402_578" x="0" y="0.588348" width="159.236" height="159.443" filterUnits="userSpaceOnUse" color-interpolation-filters="sRGB">
<feFlood flood-opacity="0" result="BackgroundImageFix"/>
<feColorMatrix in="SourceAlpha" type="matrix" values="0 0 0 0 0 0 0 0 0 0 0 0 0 0 0 0 0 0 127 0" result="hardAlpha"/>
<feOffset dy="4"/>
<feGaussianBlur stdDeviation="2"/>
<feComposite in2="hardAlpha" operator="out"/>
<feColorMatrix type="matrix" values="0 0 0 0 0 0 0 0 0 0 0 0 0 0 0 0 0 0 0.25 0"/>
<feBlend mode="normal" in2="BackgroundImageFix" result="effect1_dropShadow_402_578"/>
<feBlend mode="normal" in="SourceGraphic" in2="effect1_dropShadow_402_578" result="shape"/>
</filter>
</defs>
</svg>
